<svg width="285" height="246" viewBox="0 0 285 246" fill="none" xmlns="http://www.w3.org/2000/svg">
<g clip-path="url(#clip0_166_1590)">
<path d="M183.228 239.571C183.867 239.913 184.597 240.05 185.317 239.963C186.037 239.877 186.713 239.571 187.253 239.087C187.794 238.603 188.173 237.964 188.338 237.258C188.504 236.551 188.449 235.811 188.18 235.137C188.252 234.778 188.303 234.521 188.376 234.162C189.759 232.869 191.497 232.02 193.366 231.722C195.236 231.425 197.151 231.692 198.867 232.491C200.584 233.29 202.022 234.584 202.999 236.206C203.976 237.829 204.446 239.706 204.35 241.598C203.912 252.267 204.438 263.779 197.353 272.38C229.693 245.933 244.439 200.88 234.562 160.359C229.716 153.601 227.456 144.624 229.629 136.488C232.356 139.143 237.672 138.43 236.86 133.835C236.424 132.019 235.973 130.208 235.537 128.392C254.164 121.118 259.027 148.835 236.963 160.12C238.753 167.824 239.733 175.694 239.888 183.602C242.379 176.471 246.526 170.034 251.987 164.821C257.275 160.056 264.267 157.254 270.772 154.058C278.688 150.158 287.472 157.889 284.356 166.144C279.087 165.469 275.358 171.772 280.14 175.159C271.741 189.274 255.638 198.245 239.277 198.387C237.623 214.493 232.557 230.061 224.417 244.053C234.869 228.149 255.096 232.728 271.081 232.05C272.142 231.916 273.218 232.094 274.18 232.562C275.141 233.03 275.945 233.768 276.495 234.686C277.044 235.604 277.314 236.661 277.273 237.73C277.232 238.799 276.881 239.833 276.263 240.706C274.16 240.582 272.05 240.668 269.964 240.962C268.983 241.108 268.071 241.553 267.353 242.238C266.634 242.923 266.145 243.813 265.953 244.786C265.76 245.76 265.873 246.769 266.276 247.676C266.679 248.583 267.352 249.343 268.204 249.852C254.181 262.717 232.453 265.482 215.399 257.273C210.357 263.629 204.669 269.443 198.426 274.622L173.073 262.527C173.116 262.202 173.173 261.872 173.226 261.551C175.502 262.818 177.925 263.801 180.44 264.479C177.735 254.161 174.721 248.117 183.227 239.571H183.228Z" fill="#F2F2F2"/>
<path d="M138.428 215.162C137.965 215.72 137.341 216.122 136.642 216.314C135.942 216.505 135.201 216.477 134.518 216.233C133.835 215.989 133.243 215.54 132.824 214.948C132.404 214.357 132.176 213.65 132.171 212.924C131.969 212.619 131.824 212.4 131.622 212.095C129.853 211.421 127.924 211.29 126.08 211.72C124.237 212.15 122.564 213.121 121.276 214.509C119.987 215.896 119.142 217.637 118.849 219.509C118.556 221.38 118.828 223.296 119.631 225.012C124.058 234.727 127.909 245.588 137.713 250.879C97.7937 238.594 67.1555 202.435 61.0288 161.179C62.9697 153.091 61.6796 143.923 56.6005 137.209C55.0753 140.697 49.883 142.043 48.9034 137.481C48.6226 135.635 48.3578 133.788 48.0769 131.941C28.0843 132.236 34.0275 159.741 58.7156 161.864C59.9616 169.674 62.0201 177.333 64.8575 184.715C59.863 179.051 53.5963 174.655 46.5729 171.889C39.8797 169.472 32.3481 169.517 25.1188 169.012C16.3181 168.388 11.0966 178.864 17.0941 185.332C21.7197 182.719 27.5484 187.148 24.3967 192.09C37.4948 201.992 55.7899 204.222 70.9962 198.178C78.5992 212.469 89.1587 224.975 101.971 234.861C86.2962 224.077 69.2895 235.953 54.2298 241.359C53.1972 241.636 52.2672 242.207 51.5534 243.003C50.8396 243.8 50.3728 244.787 50.2099 245.844C50.047 246.901 50.1952 247.983 50.6362 248.958C51.0773 249.932 51.7922 250.757 52.6937 251.332C54.5947 250.424 56.5811 249.707 58.6238 249.191C59.5872 248.956 60.5999 249.024 61.5231 249.387C62.4462 249.75 63.2345 250.39 63.7801 251.219C64.3256 252.048 64.6016 253.025 64.5702 254.017C64.5388 255.009 64.2016 255.967 63.6048 256.76C81.4403 263.381 102.606 257.74 115.305 243.7C122.371 247.683 129.83 250.921 137.564 253.36L156.486 232.589C156.323 232.304 156.146 232.02 155.977 231.742C154.346 233.775 152.473 235.6 150.399 237.178C149.014 226.601 149.527 219.866 138.429 215.161L138.428 215.162Z" fill="#F2F2F2"/>
<path d="M143.298 127.391C144.019 127.318 144.701 127.025 145.25 126.551C145.8 126.077 146.191 125.446 146.37 124.743C146.549 124.039 146.507 123.298 146.251 122.619C145.995 121.94 145.537 121.356 144.938 120.947C144.798 120.609 144.697 120.366 144.557 120.028C144.986 118.183 145.955 116.508 147.341 115.218C148.727 113.928 150.467 113.082 152.336 112.787C154.206 112.493 156.121 112.764 157.836 113.566C159.551 114.368 160.987 115.664 161.961 117.288C167.542 126.389 174.393 135.652 173.302 146.746C185.415 106.746 172.555 61.1183 141.781 32.9905C133.993 30.0846 127.114 23.8934 124.386 15.9273C128.129 16.6092 132.145 13.051 128.91 9.68972C127.537 8.42536 126.153 7.17401 124.78 5.90957C136.19 -10.5219 155.67 9.77355 143.64 31.4528C149.418 36.8493 154.617 42.8356 159.151 49.3139C157.246 42.0048 157.102 34.3476 158.732 26.972C160.467 20.0663 164.71 13.8391 168.329 7.55596C172.727 -0.0981466 184.328 1.41886 186.339 10.0099C181.589 12.3898 182.005 19.7024 187.862 19.8461C188.754 36.2493 180.385 52.6819 166.882 61.9291C174.481 76.2223 178.949 91.9723 179.988 108.129C179.804 89.0945 199.146 81.61 212.038 72.1284C212.844 71.4255 213.837 70.9726 214.896 70.8248C215.955 70.677 217.033 70.8407 218.001 71.296C218.968 71.7514 219.782 72.4786 220.343 73.3889C220.905 74.2993 221.189 75.3535 221.162 76.4229C219.348 77.4938 217.644 78.7423 216.076 80.1502C215.343 80.8184 214.834 81.6972 214.619 82.6662C214.404 83.6352 214.494 84.647 214.877 85.5628C215.259 86.4786 215.915 87.2536 216.755 87.7817C217.595 88.3097 218.577 88.5648 219.568 88.5122C215.094 107.016 198.597 121.435 179.867 124.135C179.223 132.225 177.74 140.225 175.443 148.008L147.657 152.114C147.512 151.82 147.376 151.514 147.24 151.218C149.836 151 152.395 150.464 154.861 149.624C146.867 142.567 140.998 139.232 143.297 127.391L143.298 127.391Z" fill="#F2F2F2"/>
<path d="M171.243 118.476C158.593 118.476 151.732 116.929 149.336 113.627C147.222 110.713 148.639 106.869 150.28 102.418C151.46 99.219 152.797 95.5931 152.797 92.0044C152.797 74.5497 161.641 65.6992 179.083 65.6992C187.761 65.6992 197.079 70.3125 204.008 78.0401C210.307 85.0652 213.445 93.4731 212.618 101.108C211.939 107.369 209.027 111.486 203.453 114.066L203.127 114.217L203.034 113.87C202.553 112.073 201.738 110.383 200.633 108.887C200.525 111.235 199.934 113.535 198.895 115.644L198.836 115.764L198.708 115.801C192.399 117.599 184.912 118.086 179.094 118.309C176.263 118.42 173.645 118.475 171.243 118.476Z" fill="#2F2E41"/>
<path d="M174.691 142.795C174.206 141.369 173.388 140.079 172.306 139.032C171.223 137.986 169.906 137.212 168.465 136.777C167.024 136.341 165.5 136.256 164.019 136.528C162.539 136.8 161.144 137.422 159.952 138.341L118.344 163.236L105.324 131.444C106.424 129.829 106.985 127.907 106.925 125.954C106.866 124.001 106.191 122.116 104.995 120.571C103.8 119.026 102.146 117.899 100.272 117.353C98.3967 116.806 96.3971 116.868 94.5595 117.529C92.7219 118.19 91.1406 119.416 90.0426 121.032C88.9445 122.648 88.3861 124.571 88.4474 126.524C88.5086 128.477 89.1864 130.361 90.3835 131.905C91.5806 133.448 93.2356 134.573 95.111 135.118C95.9135 144.285 100.373 185.262 115.888 183.772C128.929 182.52 161.314 160.936 171.373 153.452C172.982 152.256 174.17 150.58 174.767 148.665C175.363 146.749 175.336 144.694 174.691 142.795Z" fill="#FFB6B6"/>
<path d="M206.046 323.61H169.832L163.759 293.562L161.789 323.61H128.149C128.162 300.013 129.39 276.432 131.829 252.961L132.246 251.54L132.905 249.266L133.322 247.839L140.283 223.916L140.833 222.018H182.751C185.163 224.285 187.388 226.744 189.404 229.371C190.087 230.242 190.8 231.185 191.531 232.201C192.039 232.921 192.564 233.676 193.09 234.469C197.761 241.427 201.252 249.11 203.423 257.206V257.212C203.792 258.597 204.118 260.014 204.402 261.463V261.469C204.656 262.757 204.879 264.063 205.055 265.4C205.187 266.374 205.302 267.359 205.387 268.357C205.891 273.885 205.714 279.454 204.861 284.938L206.046 323.61Z" fill="#2F2E41"/>
<path d="M14.0399 48.8527C16.3917 47.9416 17.7848 45.8758 17.1515 44.2385C16.5182 42.6013 14.0982 42.0126 11.7464 42.9236C9.39461 43.8347 8.0015 45.9005 8.63481 47.5378C9.26812 49.175 11.688 49.7637 14.0399 48.8527Z" fill="#E6E6E6"/>
<path d="M43.6506 45.0509C46.0024 44.1398 47.3956 42.074 46.7623 40.4368C46.129 38.7995 43.709 38.2108 41.3572 39.1219C39.0054 40.0329 37.6123 42.0987 38.2456 43.736C38.8789 45.3733 41.2988 45.962 43.6506 45.0509Z" fill="#3F3D56"/>
<path d="M11.4711 74.1349C13.8229 73.2238 15.216 71.158 14.5827 69.5207C13.9494 67.8835 11.5295 67.2948 9.17766 68.2058C6.82584 69.1169 5.43271 71.1827 6.06602 72.82C6.69934 74.4572 9.11927 75.0459 11.4711 74.1349Z" fill="#FF6584"/>
<path d="M2.90535 85.2869C3.98429 85.0313 4.56136 83.5659 4.19426 82.0138C3.82716 80.4617 2.65489 79.4106 1.57596 79.6662C0.497023 79.9217 -0.0800287 81.3872 0.287073 82.9393C0.654175 84.4914 1.82642 85.5425 2.90535 85.2869Z" fill="#E6E6E6"/>
<path d="M2.72854 104.168C3.80747 103.912 4.38452 102.447 4.01742 100.895C3.65032 99.3425 2.47808 98.2915 1.39914 98.547C0.320205 98.8026 -0.256847 100.268 0.110254 101.82C0.477356 103.372 1.6496 104.423 2.72854 104.168Z" fill="#3F3D56"/>
<path d="M28.7181 65.0613C29.797 64.8057 30.374 63.3403 30.0069 61.7882C29.6398 60.2361 28.4676 59.185 27.3887 59.4406C26.3097 59.6961 25.7327 61.1615 26.0998 62.7137C26.4669 64.2658 27.6391 65.3169 28.7181 65.0613Z" fill="#E6E6E6"/>
<path d="M13.1224 61.2713C14.2013 61.0157 14.7784 59.5503 14.4113 57.9982C14.0442 56.446 12.8719 55.395 11.793 55.6505C10.7141 55.9061 10.137 57.3715 10.5041 58.9236C10.8712 60.4758 12.0435 61.5268 13.1224 61.2713Z" fill="#FF6584"/>
<path d="M29.6524 43.8855C30.7313 43.63 31.3083 42.1645 30.9412 40.6124C30.5741 39.0603 29.4019 38.0092 28.323 38.2648C27.244 38.5204 26.667 39.9858 27.0341 41.5379C27.4012 43.09 28.5734 44.1411 29.6524 43.8855Z" fill="#3F3D56"/>
<path d="M37.3401 174.563C38.4773 173.226 37.8423 170.816 35.9219 169.18C34.0016 167.544 31.523 167.302 30.3858 168.639C29.2487 169.976 29.8836 172.386 31.804 174.022C33.7244 175.657 36.203 175.9 37.3401 174.563Z" fill="#E6E6E6"/>
<path d="M19.9007 150.314C21.0378 148.977 20.4029 146.567 18.4825 144.931C16.5622 143.295 14.0835 143.053 12.9464 144.39C11.8093 145.727 12.4442 148.137 14.3646 149.773C16.285 151.408 18.7636 151.651 19.9007 150.314Z" fill="#3F3D56"/>
<path d="M60.779 164.784C61.9161 163.448 61.2812 161.038 59.3608 159.402C57.4404 157.766 54.9618 157.524 53.8247 158.861C52.6875 160.197 53.3225 162.607 55.2429 164.243C57.1632 165.879 59.6418 166.121 60.779 164.784Z" fill="#FF6584"/>
<path d="M72.4226 165.052C73.6117 163.99 73.9771 162.458 73.2388 161.63C72.5005 160.802 70.938 160.992 69.749 162.054C68.5599 163.117 68.1945 164.649 68.9328 165.476C69.6711 166.304 71.2335 166.114 72.4226 165.052Z" fill="#E6E6E6"/>
<path d="M89.0973 156.218C90.2864 155.156 90.6519 153.624 89.9136 152.796C89.1753 151.968 87.6128 152.158 86.4237 153.22C85.2346 154.283 84.8692 155.815 85.6075 156.642C86.3458 157.47 87.9083 157.28 89.0973 156.218Z" fill="#3F3D56"/>
<path d="M42.3594 151.967C43.5485 150.905 43.9139 149.373 43.1756 148.545C42.4373 147.717 40.8749 147.907 39.6858 148.969C38.4967 150.032 38.1313 151.564 38.8696 152.391C39.6079 153.219 41.1703 153.029 42.3594 151.967Z" fill="#E6E6E6"/>
<path d="M46.4549 167.496C47.644 166.434 48.0094 164.902 47.2711 164.075C46.5328 163.247 44.9704 163.437 43.7813 164.499C42.5922 165.561 42.2268 167.093 42.9651 167.921C43.7034 168.749 45.2658 168.559 46.4549 167.496Z" fill="#FF6584"/>
<path d="M23.3067 161.228C24.4958 160.166 24.8612 158.634 24.1229 157.806C23.3846 156.978 21.8221 157.168 20.6331 158.23C19.444 159.292 19.0786 160.824 19.8168 161.652C20.5551 162.48 22.1176 162.29 23.3067 161.228Z" fill="#3F3D56"/>
<path d="M154.5 19.0414C156.074 18.2666 156.448 15.8026 155.335 13.5379C154.222 11.2733 152.044 10.0655 150.47 10.8403C148.895 11.6151 148.521 14.079 149.634 16.3437C150.747 18.6084 152.926 19.8162 154.5 19.0414Z" fill="#E6E6E6"/>
<path d="M160.878 48.2279C162.452 47.4531 162.826 44.9891 161.713 42.7245C160.6 40.4598 158.422 39.252 156.848 40.0268C155.274 40.8016 154.9 43.2656 156.013 45.5303C157.125 47.7949 159.304 49.0027 160.878 48.2279Z" fill="#3F3D56"/>
<path d="M129.109 18.6967C130.683 17.9219 131.057 15.4579 129.944 13.1932C128.831 10.9285 126.653 9.72074 125.078 10.4955C123.504 11.2703 123.13 13.7343 124.243 15.999C125.356 18.2637 127.534 19.4715 129.109 18.6967Z" fill="#FF6584"/>
<path d="M115.762 9.43437C117.275 8.93241 118.219 7.67173 117.87 6.61854C117.521 5.56535 116.012 5.11847 114.499 5.62043C112.986 6.12238 112.042 7.38308 112.391 8.43627C112.74 9.48946 114.25 9.93632 115.762 9.43437Z" fill="#E6E6E6"/>
<path d="M96.9525 10.9129C98.4654 10.4109 99.4089 9.15024 99.06 8.09705C98.7111 7.04386 97.2018 6.597 95.689 7.09895C94.1761 7.60091 93.2326 8.86159 93.5815 9.91478C93.9305 10.968 95.4397 11.4148 96.9525 10.9129Z" fill="#3F3D56"/>
<path d="M138.158 33.3943C139.67 32.8924 140.614 31.6317 140.265 30.5785C139.916 29.5253 138.407 29.0784 136.894 29.5804C135.381 30.0823 134.438 31.343 134.787 32.3962C135.135 33.4494 136.645 33.8963 138.158 33.3943Z" fill="#E6E6E6"/>
<path d="M140.563 17.5164C142.076 17.0144 143.019 15.7537 142.67 14.7006C142.322 13.6474 140.812 13.2005 139.299 13.7025C137.787 14.2044 136.843 15.4651 137.192 16.5183C137.541 17.5715 139.05 18.0183 140.563 17.5164Z" fill="#FF6584"/>
<path d="M159.318 32.4715C160.831 31.9695 161.774 30.7088 161.425 29.6556C161.076 28.6024 159.567 28.1556 158.054 28.6575C156.541 29.1595 155.598 30.4202 155.947 31.4734C156.296 32.5266 157.805 32.9734 159.318 32.4715Z" fill="#3F3D56"/>
<path d="M165.125 123.335L185.075 122.307L194.342 136.96C194.342 136.96 211.777 139.877 210.568 160.437C209.36 180.997 189.355 199.039 189.355 199.039L190.21 209.746L188.725 213.993L188.915 216.378L190.942 218.903L191.15 221.515L189.355 225.647L191.796 229.603L140.473 224.627L138.596 217.785L141.334 214.112L139.805 209.319L142.104 204.71L143.303 190.069C143.303 190.069 130.188 170.351 145.243 155.5L151.286 145.22L158.047 136.964L165.125 123.335Z" fill="#5C8EE5"/>
<path d="M175.043 119.198C186.719 119.198 196.183 109.726 196.183 98.0423C196.183 86.3584 186.719 76.8867 175.043 76.8867C163.368 76.8867 153.904 86.3584 153.904 98.0423C153.904 109.726 163.368 119.198 175.043 119.198Z" fill="#FFB6B6"/>
<path d="M172.213 96.7598C170.391 96.7598 168.57 96.7084 166.751 96.6057L166.426 96.5874L166.468 96.2643C166.736 94.245 166.586 92.1921 166.025 90.2337C165.073 92.4636 163.658 94.4647 161.872 96.1037L161.771 96.1961L161.635 96.1814C156.693 95.6404 151.796 94.7466 146.982 93.5068L146.797 93.4596L146.76 93.2729C146.401 91.5058 146.215 89.7077 146.204 87.9043C146.204 82.2708 148.245 77.5294 151.951 74.5533C155.985 71.3139 161.768 70.3176 168.239 71.7465H188.932C191.207 71.749 193.388 72.6546 194.997 74.2644C196.606 75.8742 197.51 78.0569 197.513 80.3336V93.4474L197.287 93.5065C189.102 95.6591 180.676 96.7525 172.213 96.7598Z" fill="#2F2E41"/>
<path d="M27.9659 73.2277C27.0396 73.5667 26.2855 74.2597 25.869 75.1545C25.4525 76.0493 25.4077 77.0728 25.7445 78.0006L48.0681 139.3C48.4069 140.227 49.0993 140.982 49.9934 141.399C50.8875 141.815 51.9104 141.86 52.8375 141.523L139.479 109.924C140.406 109.585 141.16 108.892 141.576 107.997C141.993 107.102 142.038 106.079 141.701 105.151L119.377 43.8515C119.038 42.9244 118.346 42.1697 117.452 41.7529C116.558 41.3361 115.535 41.2912 114.608 41.6282L27.9659 73.2277Z" fill="#CCCCCC"/>
<path d="M107.233 118.305L54.199 137.648C53.2012 138.01 52.1003 137.962 51.138 137.513C50.1757 137.065 49.4305 136.253 49.0659 135.255L28.8185 79.6567C28.4561 78.6582 28.5043 77.5565 28.9525 76.5934C29.4007 75.6304 30.2124 74.8846 31.2094 74.5197L112.955 44.7058C113.953 44.3432 115.054 44.3914 116.017 44.84C116.979 45.2886 117.724 46.1009 118.089 47.0987L127.872 73.9631C131 82.5828 130.584 92.0922 126.715 100.405C122.845 108.718 115.839 115.156 107.233 118.305Z" fill="white"/>
<path d="M69.0724 78.1396L56.4698 82.7359C56.3118 82.7936 56.1439 82.8195 55.9759 82.8122C55.8078 82.805 55.6428 82.7646 55.4903 82.6936C55.3379 82.6225 55.2009 82.5221 55.0872 82.398C54.9735 82.2739 54.8853 82.1287 54.8277 81.9705C54.7701 81.8123 54.7442 81.6444 54.7515 81.4762C54.7587 81.308 54.799 81.1429 54.8701 80.9903C54.9411 80.8377 55.0415 80.7006 55.1654 80.5868C55.2894 80.4731 55.4345 80.3848 55.5926 80.3272L68.1952 75.7308C68.5144 75.6144 68.8667 75.6296 69.1747 75.7732C69.4826 75.9168 69.721 76.1768 69.8373 76.4963C69.9537 76.8157 69.9384 77.1683 69.795 77.4765C69.6515 77.7846 69.3916 78.0232 69.0725 78.1396H69.0724Z" fill="#5C8EE5"/>
<path d="M99.1173 72.7626L58.2637 87.6625C58.1056 87.7204 57.9377 87.7465 57.7695 87.7394C57.6013 87.7323 57.4361 87.692 57.2835 87.621C57.1308 87.55 56.9937 87.4495 56.8798 87.3254C56.766 87.2012 56.6778 87.0559 56.6201 86.8976C56.5625 86.7393 56.5366 86.5712 56.5439 86.4029C56.5512 86.2346 56.5916 86.0694 56.6628 85.9167C56.734 85.764 56.8345 85.6269 56.9587 85.5131C57.0829 85.3994 57.2282 85.3112 57.3865 85.2537L98.2401 70.3539C98.3981 70.2962 98.566 70.2703 98.734 70.2776C98.9021 70.2848 99.067 70.3252 99.2195 70.3962C99.372 70.4673 99.509 70.5678 99.6227 70.6918C99.7364 70.8159 99.8246 70.9611 99.8822 71.1193C99.9398 71.2775 99.9657 71.4455 99.9584 71.6136C99.9512 71.7818 99.9109 71.9469 99.8398 72.0995C99.7688 72.2521 99.6684 72.3892 99.5445 72.503C99.4205 72.6168 99.2753 72.705 99.1173 72.7626Z" fill="#5C8EE5"/>
<path d="M101.177 78.4174L60.323 93.3172C60.165 93.3749 59.9971 93.4008 59.829 93.3935C59.661 93.3863 59.496 93.3459 59.3435 93.2749C59.191 93.2038 59.054 93.1033 58.9403 92.9793C58.8267 92.8552 58.7385 92.71 58.6809 92.5518C58.6233 92.3936 58.5974 92.2257 58.6047 92.0575C58.6119 91.8893 58.6522 91.7242 58.7232 91.5716C58.7943 91.419 58.8946 91.2819 59.0186 91.1681C59.1426 91.0543 59.2877 90.9661 59.4458 90.9085L100.299 76.0086C100.618 75.8927 100.97 75.9082 101.278 76.0519C101.586 76.1955 101.824 76.4554 101.94 76.7746C102.056 77.0938 102.041 77.446 101.898 77.7541C101.755 78.0621 101.495 78.3007 101.177 78.4174Z" fill="#5C8EE5"/>
<path d="M103.236 84.0712L62.3822 98.9711C62.2241 99.029 62.0561 99.0551 61.8879 99.048C61.7197 99.0409 61.5546 99.0006 61.4019 98.9296C61.2493 98.8586 61.1121 98.7581 60.9983 98.634C60.8845 98.5098 60.7962 98.3645 60.7386 98.2062C60.6809 98.0479 60.655 97.8798 60.6623 97.7115C60.6697 97.5432 60.7101 97.378 60.7813 97.2253C60.8524 97.0726 60.953 96.9355 61.0772 96.8217C61.2013 96.708 61.3467 96.6198 61.5049 96.5623L102.359 81.6625C102.517 81.6048 102.684 81.5789 102.852 81.5862C103.021 81.5934 103.185 81.6338 103.338 81.7048C103.49 81.7759 103.627 81.8764 103.741 82.0004C103.855 82.1245 103.943 82.2698 104.001 82.4279C104.058 82.5861 104.084 82.754 104.077 82.9222C104.07 83.0904 104.029 83.2555 103.958 83.4081C103.887 83.5607 103.787 83.6978 103.663 83.8116C103.539 83.9254 103.394 84.0136 103.236 84.0712Z" fill="#5C8EE5"/>
<path d="M105.295 89.7255L64.4409 104.625C64.1217 104.742 63.7694 104.727 63.4614 104.583C63.1535 104.439 62.9151 104.179 62.7988 103.86C62.6825 103.541 62.6977 103.188 62.8412 102.88C62.9846 102.572 63.2445 102.333 63.5637 102.217L104.417 87.3167C104.575 87.2591 104.743 87.2332 104.911 87.2405C105.079 87.2477 105.244 87.2881 105.397 87.3591C105.549 87.4302 105.686 87.5307 105.8 87.6547C105.914 87.7788 106.002 87.9241 106.059 88.0822C106.117 88.2404 106.143 88.4083 106.136 88.5765C106.128 88.7447 106.088 88.9098 106.017 89.0624C105.946 89.215 105.846 89.3521 105.722 89.4659C105.598 89.5797 105.453 89.6679 105.295 89.7255H105.295Z" fill="#5C8EE5"/>
<path d="M234.923 105.429L212.555 158.995C211.601 161.261 209.795 163.061 207.526 164.007C205.257 164.952 202.707 164.967 200.427 164.048C199.248 163.572 198.178 162.861 197.282 161.958C196.386 161.056 195.683 159.979 195.217 158.796C194.75 157.612 194.529 156.346 194.567 155.074C194.605 153.802 194.902 152.552 195.439 151.398L220.378 96.4694L234.126 62.4533C232.938 61.2676 232.144 59.7446 231.851 58.0913C231.558 56.4379 231.781 54.7345 232.489 53.2122C233.197 51.69 234.356 50.4229 235.809 49.5829C237.262 48.743 238.938 48.371 240.609 48.5175C242.281 48.664 243.867 49.3219 245.152 50.4018C246.436 51.4817 247.358 52.9312 247.791 54.5534C248.224 56.1756 248.147 57.8919 247.572 59.4691C246.996 61.0463 245.949 62.4079 244.573 63.3689L234.923 105.429Z" fill="#FFB6B6"/>
</g>
<defs>
<clipPath id="clip0_166_1590">
<rect width="285" height="245.417" fill="white"/>
</clipPath>
</defs>
</svg>
